<?xml version="1.0" encoding="UTF-8"?>
<!DOCTYPE svg PUBLIC "-//W3C//DTD SVG 1.1//EN" "http://www.w3.org/Graphics/SVG/1.1/DTD/svg11.dtd">
<svg xmlns="http://www.w3.org/2000/svg" version="1.1" width="87px" height="87px" style="shape-rendering:geometricPrecision; text-rendering:geometricPrecision; image-rendering:optimizeQuality; fill-rule:evenodd; clip-rule:evenodd" xmlns:xlink="http://www.w3.org/1999/xlink">
<g><path style="opacity:0.867" fill="#fff" d="M 75.5,12.5 C 76.5,12.5 77.5,12.5 78.5,12.5C 78.6602,14.1992 78.4935,15.8659 78,17.5C 76.4851,19.6772 74.9851,21.8439 73.5,24C 74.9851,26.1561 76.4851,28.3228 78,30.5C 78.6667,32.8333 78.6667,35.1667 78,37.5C 75.207,39.7794 73.0403,42.446 71.5,45.5C 70.2801,45.1131 69.6135,44.2798 69.5,43C 71.2868,39.7101 73.2868,36.5435 75.5,33.5C 72.68,31.0194 70.68,28.0194 69.5,24.5C 71.1263,20.2372 73.1263,16.2372 75.5,12.5 Z"/></g>
<g><path style="opacity:0.838" fill="#fff" d="M 86.5,70.5 C 86.5,71.5 86.5,72.5 86.5,73.5C 57.5,73.5 28.5,73.5 -0.5,73.5C -0.5,72.5 -0.5,71.5 -0.5,70.5C 2.39147,69.5975 5.39147,69.2641 8.5,69.5C 9.50117,50.1709 19.5012,39.1709 38.5,36.5C 38.5,34.5 38.5,32.5 38.5,30.5C 41.5,30.5 44.5,30.5 47.5,30.5C 47.5,32.5 47.5,34.5 47.5,36.5C 50.3646,36.0548 52.8646,36.7215 55,38.5C 59.6667,35.1667 59.6667,31.8333 55,28.5C 54.1251,27.1268 53.6251,25.6268 53.5,24C 54.8997,20.2686 56.733,16.7686 59,13.5C 60.0113,12.6634 61.1779,12.33 62.5,12.5C 62.6567,13.8734 62.49,15.2068 62,16.5C 60.0415,18.7768 58.5415,21.2768 57.5,24C 58.5415,26.7232 60.0415,29.2232 62,31.5C 62.6667,33.1667 62.6667,34.8333 62,36.5C 59.6397,39.3603 57.473,42.3603 55.5,45.5C 53.7826,44.3315 53.1159,42.6648 53.5,40.5C 49.5239,39.6693 45.5239,39.5027 41.5,40C 43.4812,40.6054 43.8146,41.6054 42.5,43C 33.0777,43.3742 25.7444,47.3742 20.5,55C 19.552,55.4828 18.552,55.6495 17.5,55.5C 17.6495,54.448 17.4828,53.448 17,52.5C 13.5566,57.6617 12.0566,63.3284 12.5,69.5C 32.8333,69.5 53.1667,69.5 73.5,69.5C 73.7367,65.7267 73.2367,62.0601 72,58.5C 68.8524,53.0199 65.3524,47.8533 61.5,43C 62.734,39.443 64.734,36.443 67.5,34C 65.6667,31.5 63.8333,29 62,26.5C 61.3333,24.8333 61.3333,23.1667 62,21.5C 64.0285,18.9708 65.8619,16.3041 67.5,13.5C 68.325,12.6143 69.325,12.281 70.5,12.5C 71.1059,16.6218 69.6059,19.6218 66,21.5C 64.7935,24.8469 65.7935,27.1803 69,28.5C 71,31.8333 71,35.1667 69,38.5C 67.437,39.7252 66.2703,41.2252 65.5,43C 73.4435,49.9783 77.4435,58.8116 77.5,69.5C 80.6085,69.2641 83.6085,69.5975 86.5,70.5 Z"/></g>
</svg>
